<svg width="361" height="59" viewBox="0 0 361 59" fill="none" xmlns="http://www.w3.org/2000/svg">
<g clip-path="url(#clip0_527_12455)">
<path d="M67.7248 0H3.27521C1.46636 0 0 1.438 0 3.21186V48.7881C0 50.562 1.46636 52 3.27521 52H67.7248C69.5336 52 71 50.562 71 48.7881V3.21186C71 1.438 69.5336 0 67.7248 0Z" fill="#FBC02D"/>
<path d="M47.4049 35.838C46.3556 35.8369 45.3074 35.7682 44.2673 35.6324C43.2956 35.5167 42.3453 35.268 41.444 34.8937C40.6568 34.5765 39.9647 34.068 39.433 33.4163C38.9053 32.7083 38.6396 31.8449 38.6797 30.9688V9.72559H44.1755V19.9072L43.1209 18.1728C43.5973 17.6413 44.1879 17.2201 44.8502 16.9394C45.5338 16.6376 46.2535 16.4217 46.9922 16.2971C47.5887 16.1867 48.1933 16.1244 48.8001 16.1108C51.6081 16.1108 53.7457 16.9416 55.213 18.6032C56.6803 20.2648 57.4139 22.6929 57.4139 25.8877C57.459 27.4934 57.2037 29.0936 56.6607 30.6091C56.2276 31.7846 55.5054 32.8371 54.558 33.6732C53.6376 34.443 52.5583 35.0084 51.3941 35.3305C50.0959 35.6854 48.7525 35.8563 47.4049 35.838ZM47.3329 31.2643C48.2517 31.3083 49.1634 31.0848 49.953 30.6219C50.6041 30.1886 51.0974 29.5631 51.3614 28.8361C51.6627 27.9945 51.809 27.1071 51.7937 26.2153C51.8417 25.0694 51.65 23.9261 51.2304 22.8557C50.93 22.1065 50.3898 21.4731 49.691 21.0506C49.0016 20.6717 48.2212 20.4809 47.4311 20.4982C46.8761 20.5028 46.323 20.5631 45.7804 20.678C45.2128 20.7906 44.6668 20.99 44.1624 21.269V29.5363C44.149 29.727 44.179 29.9181 44.2504 30.0959C44.3218 30.2737 44.4327 30.4337 44.5751 30.5641C44.9035 30.8378 45.2983 31.0236 45.7215 31.1037C46.2505 31.2186 46.791 31.2747 47.3329 31.2707V31.2643Z" fill="white"/>
<path d="M13.9453 35.2855V10.6826H24.0264C28.2929 10.6826 31.4284 11.7233 33.4328 13.8045C35.4372 15.8858 36.4395 18.9478 36.4395 22.9905C36.4395 27.0246 35.4372 30.0801 33.4328 32.1571C31.4284 34.2341 28.2929 35.2726 24.0264 35.2726L13.9453 35.2855ZM20.0372 30.6797H23.3124C25.5701 30.6797 27.282 30.0651 28.4479 28.836C29.6139 27.6027 30.1969 25.6627 30.1969 23.0033C30.1969 20.3439 29.6139 18.3397 28.4479 17.1192C27.282 15.8987 25.5723 15.282 23.3124 15.282H20.0372V30.6797Z" fill="white"/>
<path d="M34.1274 40.6493V42.2617H13.5918V40.6365L34.1274 40.6493Z" fill="white"/>
<path d="M54.6625 40.6493V42.2617H34.127V40.6365L54.6625 40.6493Z" fill="white"/>
</g>
<path d="M87.554 40.126C86.798 40.126 86.132 40 85.556 39.748C84.992 39.496 84.554 39.142 84.242 38.686C83.93 38.23 83.774 37.708 83.774 37.12C83.774 36.964 83.78 36.844 83.792 36.76H85.034C85.01 37.144 85.076 37.516 85.232 37.876C85.4 38.224 85.682 38.518 86.078 38.758C86.486 38.986 87.008 39.1 87.644 39.1C88.532 39.1 89.24 38.878 89.768 38.434C90.296 37.99 90.56 37.39 90.56 36.634C90.56 36.178 90.434 35.8 90.182 35.5C89.942 35.188 89.642 34.936 89.282 34.744C88.922 34.54 88.43 34.312 87.806 34.06C87.074 33.772 86.492 33.508 86.06 33.268C85.628 33.016 85.268 32.674 84.98 32.242C84.704 31.81 84.59 31.258 84.638 30.586C84.662 29.938 84.854 29.368 85.214 28.876C85.586 28.372 86.084 27.982 86.708 27.706C87.344 27.418 88.064 27.274 88.868 27.274C89.66 27.274 90.338 27.412 90.902 27.688C91.478 27.952 91.904 28.318 92.18 28.786C92.468 29.254 92.594 29.77 92.558 30.334H91.244C91.268 30.01 91.19 29.692 91.01 29.38C90.842 29.068 90.566 28.816 90.182 28.624C89.81 28.42 89.348 28.318 88.796 28.318C87.944 28.318 87.248 28.528 86.708 28.948C86.168 29.356 85.898 29.914 85.898 30.622C85.898 31.042 86.018 31.396 86.258 31.684C86.498 31.972 86.792 32.212 87.14 32.404C87.488 32.596 87.968 32.818 88.58 33.07C89.288 33.358 89.858 33.628 90.29 33.88C90.734 34.132 91.106 34.468 91.406 34.888C91.718 35.308 91.874 35.836 91.874 36.472C91.874 36.628 91.868 36.748 91.856 36.832C91.808 37.444 91.604 38.002 91.244 38.506C90.884 39.01 90.386 39.406 89.75 39.694C89.126 39.982 88.394 40.126 87.554 40.126ZM99.7473 30.028C100.575 30.028 101.283 30.19 101.871 30.514C102.459 30.826 102.903 31.258 103.203 31.81C103.515 32.362 103.671 32.992 103.671 33.7C103.671 34.024 103.647 34.312 103.599 34.564C103.527 34.924 103.455 35.248 103.383 35.536H95.2293C95.1933 35.764 95.1753 35.98 95.1753 36.184C95.1753 37.108 95.4513 37.822 96.0033 38.326C96.5673 38.83 97.2813 39.082 98.1453 39.082C98.9733 39.082 99.6993 38.884 100.323 38.488C100.947 38.092 101.403 37.558 101.691 36.886H103.041C102.633 37.846 101.979 38.632 101.079 39.244C100.191 39.844 99.1533 40.144 97.9653 40.144C96.7413 40.144 95.7573 39.796 95.0133 39.1C94.2813 38.392 93.9153 37.432 93.9153 36.22C93.9153 35.86 93.9513 35.482 94.0233 35.086C94.2033 34.066 94.5633 33.172 95.1033 32.404C95.6553 31.636 96.3333 31.048 97.1373 30.64C97.9413 30.232 98.8113 30.028 99.7473 30.028ZM102.303 34.6C102.363 34.264 102.393 33.982 102.393 33.754C102.393 32.902 102.123 32.248 101.583 31.792C101.043 31.336 100.353 31.108 99.5133 31.108C98.9013 31.108 98.3133 31.24 97.7493 31.504C97.1853 31.768 96.6933 32.164 96.2733 32.692C95.8533 33.22 95.5653 33.856 95.4093 34.6H102.303ZM111.323 29.992C112.331 29.992 113.135 30.268 113.735 30.82C114.347 31.36 114.653 32.152 114.653 33.196C114.653 33.58 114.623 33.928 114.563 34.24L113.537 40H112.295L113.285 34.384C113.333 34.108 113.357 33.814 113.357 33.502C113.357 32.71 113.141 32.11 112.709 31.702C112.277 31.294 111.671 31.09 110.891 31.09C109.943 31.09 109.133 31.39 108.461 31.99C107.789 32.59 107.351 33.472 107.147 34.636V34.582L106.193 40H104.933L106.661 30.172H107.921L107.615 31.864C108.035 31.264 108.569 30.802 109.217 30.478C109.865 30.154 110.567 29.992 111.323 29.992ZM118.411 37.336C118.375 37.552 118.357 37.738 118.357 37.894C118.357 38.278 118.459 38.548 118.663 38.704C118.879 38.848 119.227 38.92 119.707 38.92H120.859L120.661 40H119.311C118.567 40 118.009 39.856 117.637 39.568C117.265 39.28 117.079 38.806 117.079 38.146C117.079 37.882 117.103 37.612 117.151 37.336L118.231 31.234H116.863L117.061 30.172H118.429L118.861 27.706H120.121L119.689 30.172H122.407L122.209 31.234H119.491L118.411 37.336ZM125.439 28.318C125.211 28.318 125.025 28.252 124.881 28.12C124.737 27.976 124.665 27.79 124.665 27.562C124.665 27.25 124.773 26.992 124.989 26.788C125.205 26.572 125.463 26.464 125.763 26.464C125.991 26.464 126.171 26.53 126.303 26.662C126.447 26.794 126.519 26.968 126.519 27.184C126.519 27.496 126.411 27.766 126.195 27.994C125.979 28.21 125.727 28.318 125.439 28.318ZM125.727 30.172L123.999 40H122.739L124.467 30.172H125.727ZM128.941 37.336C128.905 37.552 128.887 37.738 128.887 37.894C128.887 38.278 128.989 38.548 129.193 38.704C129.409 38.848 129.757 38.92 130.237 38.92H131.389L131.191 40H129.841C129.097 40 128.539 39.856 128.167 39.568C127.795 39.28 127.609 38.806 127.609 38.146C127.609 37.882 127.633 37.612 127.681 37.336L128.761 31.234H127.393L127.591 30.172H128.958L129.391 27.706H130.651L130.219 30.172H132.937L132.739 31.234H130.021L128.941 37.336ZM139.281 30.028C140.109 30.028 140.817 30.19 141.405 30.514C141.993 30.826 142.437 31.258 142.737 31.81C143.049 32.362 143.205 32.992 143.205 33.7C143.205 34.024 143.181 34.312 143.133 34.564C143.061 34.924 142.989 35.248 142.917 35.536H134.763C134.727 35.764 134.709 35.98 134.709 36.184C134.709 37.108 134.985 37.822 135.537 38.326C136.101 38.83 136.815 39.082 137.679 39.082C138.507 39.082 139.233 38.884 139.857 38.488C140.481 38.092 140.937 37.558 141.225 36.886H142.575C142.167 37.846 141.513 38.632 140.613 39.244C139.725 39.844 138.687 40.144 137.499 40.144C136.275 40.144 135.291 39.796 134.547 39.1C133.815 38.392 133.449 37.432 133.449 36.22C133.449 35.86 133.485 35.482 133.557 35.086C133.737 34.066 134.097 33.172 134.637 32.404C135.189 31.636 135.867 31.048 136.671 30.64C137.475 30.232 138.345 30.028 139.281 30.028ZM141.837 34.6C141.897 34.264 141.927 33.982 141.927 33.754C141.927 32.902 141.657 32.248 141.117 31.792C140.577 31.336 139.887 31.108 139.047 31.108C138.435 31.108 137.847 31.24 137.283 31.504C136.719 31.768 136.227 32.164 135.807 32.692C135.387 33.22 135.099 33.856 134.943 34.6H141.837ZM150.062 35.086C150.242 34.066 150.602 33.178 151.142 32.422C151.694 31.654 152.366 31.066 153.158 30.658C153.95 30.238 154.808 30.028 155.732 30.028C156.944 30.028 157.886 30.328 158.558 30.928C159.242 31.528 159.608 32.344 159.656 33.376H158.306C158.27 32.668 158.006 32.116 157.514 31.72C157.034 31.312 156.38 31.108 155.552 31.108C154.532 31.108 153.632 31.456 152.852 32.152C152.084 32.836 151.586 33.814 151.358 35.086C151.298 35.386 151.268 35.728 151.268 36.112C151.268 37.072 151.526 37.81 152.042 38.326C152.57 38.83 153.266 39.082 154.13 39.082C154.97 39.082 155.702 38.884 156.326 38.488C156.95 38.08 157.412 37.516 157.712 36.796H159.062C158.654 37.804 158 38.614 157.1 39.226C156.2 39.838 155.15 40.144 153.95 40.144C152.738 40.144 151.766 39.796 151.034 39.1C150.314 38.404 149.954 37.45 149.954 36.238C149.954 35.866 149.99 35.482 150.062 35.086ZM165.133 40.144C164.317 40.144 163.597 39.982 162.973 39.658C162.349 39.322 161.863 38.854 161.515 38.254C161.179 37.642 161.011 36.928 161.011 36.112C161.011 35.008 161.263 33.994 161.767 33.07C162.271 32.134 162.973 31.396 163.873 30.856C164.773 30.304 165.775 30.028 166.879 30.028C167.695 30.028 168.415 30.196 169.039 30.532C169.663 30.856 170.149 31.324 170.497 31.936C170.845 32.536 171.019 33.244 171.019 34.06C171.019 35.176 170.761 36.196 170.245 37.12C169.729 38.044 169.021 38.782 168.121 39.334C167.233 39.874 166.237 40.144 165.133 40.144ZM165.277 39.082C166.129 39.082 166.891 38.854 167.563 38.398C168.247 37.942 168.775 37.336 169.147 36.58C169.531 35.824 169.723 35.008 169.723 34.132C169.723 33.148 169.435 32.398 168.859 31.882C168.295 31.366 167.575 31.108 166.699 31.108C165.847 31.108 165.085 31.336 164.413 31.792C163.753 32.248 163.237 32.854 162.865 33.61C162.493 34.366 162.307 35.182 162.307 36.058C162.307 37.03 162.589 37.78 163.153 38.308C163.717 38.824 164.425 39.082 165.277 39.082ZM185.844 29.992C186.828 29.992 187.614 30.262 188.202 30.802C188.802 31.342 189.102 32.134 189.102 33.178C189.102 33.502 189.066 33.856 188.994 34.24L187.968 40H186.726L187.734 34.384C187.794 34.024 187.824 33.724 187.824 33.484C187.824 32.704 187.614 32.11 187.194 31.702C186.774 31.294 186.18 31.09 185.412 31.09C184.56 31.09 183.81 31.36 183.162 31.9C182.526 32.44 182.082 33.22 181.83 34.24L180.786 40H179.544L180.552 34.384C180.612 34.024 180.642 33.724 180.642 33.484C180.642 32.704 180.432 32.11 180.012 31.702C179.592 31.294 179.004 31.09 178.248 31.09C177.336 31.09 176.55 31.39 175.89 31.99C175.23 32.578 174.792 33.43 174.576 34.546L173.622 40H172.362L174.09 30.172H175.35L175.044 31.882C175.452 31.27 175.974 30.802 176.61 30.478C177.258 30.154 177.942 29.992 178.662 29.992C179.514 29.992 180.222 30.196 180.786 30.604C181.35 31.012 181.704 31.612 181.848 32.404C182.244 31.624 182.802 31.03 183.522 30.622C184.242 30.202 185.016 29.992 185.844 29.992ZM195.087 40.144C194.271 40.144 193.551 39.982 192.927 39.658C192.303 39.322 191.817 38.854 191.469 38.254C191.133 37.642 190.965 36.928 190.965 36.112C190.965 35.008 191.217 33.994 191.721 33.07C192.225 32.134 192.927 31.396 193.827 30.856C194.727 30.304 195.729 30.028 196.833 30.028C197.649 30.028 198.369 30.196 198.993 30.532C199.617 30.856 200.103 31.324 200.451 31.936C200.799 32.536 200.973 33.244 200.973 34.06C200.973 35.176 200.715 36.196 200.199 37.12C199.683 38.044 198.975 38.782 198.075 39.334C197.187 39.874 196.191 40.144 195.087 40.144ZM195.231 39.082C196.083 39.082 196.845 38.854 197.517 38.398C198.201 37.942 198.729 37.336 199.101 36.58C199.485 35.824 199.677 35.008 199.677 34.132C199.677 33.148 199.389 32.398 198.813 31.882C198.249 31.366 197.529 31.108 196.653 31.108C195.801 31.108 195.039 31.336 194.367 31.792C193.707 32.248 193.191 32.854 192.819 33.61C192.447 34.366 192.261 35.182 192.261 36.058C192.261 37.03 192.543 37.78 193.107 38.308C193.671 38.824 194.379 39.082 195.231 39.082ZM213.636 30.028C214.464 30.028 215.172 30.19 215.76 30.514C216.348 30.826 216.792 31.258 217.092 31.81C217.404 32.362 217.56 32.992 217.56 33.7C217.56 34.024 217.536 34.312 217.488 34.564C217.416 34.924 217.344 35.248 217.272 35.536H209.118C209.082 35.764 209.064 35.98 209.064 36.184C209.064 37.108 209.34 37.822 209.892 38.326C210.456 38.83 211.17 39.082 212.034 39.082C212.862 39.082 213.588 38.884 214.212 38.488C214.836 38.092 215.292 37.558 215.58 36.886H216.93C216.522 37.846 215.868 38.632 214.968 39.244C214.08 39.844 213.042 40.144 211.854 40.144C210.63 40.144 209.646 39.796 208.902 39.1C208.17 38.392 207.804 37.432 207.804 36.22C207.804 35.86 207.84 35.482 207.912 35.086C208.092 34.066 208.452 33.172 208.992 32.404C209.544 31.636 210.222 31.048 211.026 30.64C211.83 30.232 212.7 30.028 213.636 30.028ZM216.192 34.6C216.252 34.264 216.282 33.982 216.282 33.754C216.282 32.902 216.012 32.248 215.472 31.792C214.932 31.336 214.242 31.108 213.402 31.108C212.79 31.108 212.202 31.24 211.638 31.504C211.074 31.768 210.582 32.164 210.162 32.692C209.742 33.22 209.454 33.856 209.298 34.6H216.192ZM225.211 29.992C226.219 29.992 227.023 30.268 227.623 30.82C228.235 31.36 228.541 32.152 228.541 33.196C228.541 33.58 228.511 33.928 228.451 34.24L227.425 40H226.183L227.173 34.384C227.221 34.108 227.245 33.814 227.245 33.502C227.245 32.71 227.029 32.11 226.597 31.702C226.165 31.294 225.559 31.09 224.779 31.09C223.831 31.09 223.021 31.39 222.349 31.99C221.677 32.59 221.239 33.472 221.035 34.636V34.582L220.081 40H218.821L220.549 30.172H221.809L221.503 31.864C221.923 31.264 222.457 30.802 223.105 30.478C223.753 30.154 224.455 29.992 225.211 29.992ZM237.608 37.336C237.572 37.552 237.554 37.738 237.554 37.894C237.554 38.278 237.656 38.548 237.86 38.704C238.076 38.848 238.424 38.92 238.904 38.92H240.056L239.858 40H238.508C237.764 40 237.206 39.856 236.834 39.568C236.462 39.28 236.276 38.806 236.276 38.146C236.276 37.882 236.3 37.612 236.348 37.336L237.428 31.234H236.06L236.258 30.172H237.626L238.058 27.706H239.318L238.886 30.172H241.604L241.406 31.234H238.688L237.608 37.336ZM252.178 30.172L250.45 40H249.19L249.496 38.272C249.088 38.884 248.56 39.352 247.912 39.676C247.264 40 246.568 40.162 245.824 40.162C244.816 40.162 244.006 39.892 243.394 39.352C242.782 38.8 242.476 38.002 242.476 36.958C242.476 36.574 242.506 36.226 242.566 35.914L243.574 30.172H244.816L243.826 35.77C243.778 36.046 243.754 36.334 243.754 36.634C243.754 37.426 243.97 38.032 244.402 38.452C244.846 38.86 245.458 39.064 246.238 39.064C247.15 39.064 247.936 38.788 248.596 38.236C249.256 37.672 249.7 36.85 249.928 35.77L250.918 30.172H252.178ZM265.08 29.992C266.064 29.992 266.856 30.262 267.456 30.802C268.056 31.342 268.356 32.14 268.356 33.196C268.356 33.58 268.326 33.928 268.266 34.24L267.24 40H265.998L266.988 34.384C267.036 34.108 267.06 33.814 267.06 33.502C267.06 32.71 266.844 32.11 266.412 31.702C265.98 31.294 265.374 31.09 264.594 31.09C263.646 31.09 262.836 31.39 262.164 31.99C261.492 32.59 261.054 33.472 260.85 34.636V34.618L259.896 40H258.636L260.994 26.68H262.254L261.336 31.846C261.756 31.246 262.296 30.79 262.956 30.478C263.616 30.154 264.324 29.992 265.08 29.992ZM274.346 40.144C273.53 40.144 272.81 39.982 272.186 39.658C271.562 39.322 271.076 38.854 270.728 38.254C270.392 37.642 270.224 36.928 270.224 36.112C270.224 35.008 270.476 33.994 270.98 33.07C271.484 32.134 272.186 31.396 273.086 30.856C273.986 30.304 274.988 30.028 276.092 30.028C276.908 30.028 277.628 30.196 278.252 30.532C278.876 30.856 279.362 31.324 279.71 31.936C280.058 32.536 280.232 33.244 280.232 34.06C280.232 35.176 279.974 36.196 279.458 37.12C278.942 38.044 278.234 38.782 277.334 39.334C276.446 39.874 275.45 40.144 274.346 40.144ZM274.49 39.082C275.342 39.082 276.104 38.854 276.776 38.398C277.46 37.942 277.988 37.336 278.36 36.58C278.744 35.824 278.936 35.008 278.936 34.132C278.936 33.148 278.648 32.398 278.072 31.882C277.508 31.366 276.788 31.108 275.912 31.108C275.06 31.108 274.298 31.336 273.626 31.792C272.966 32.248 272.45 32.854 272.078 33.61C271.706 34.366 271.52 35.182 271.52 36.058C271.52 37.03 271.802 37.78 272.366 38.308C272.93 38.824 273.638 39.082 274.49 39.082ZM287.461 30.028C288.385 30.028 289.147 30.244 289.747 30.676C290.359 31.108 290.755 31.654 290.935 32.314L291.313 30.172H292.573L290.809 40.252C290.653 41.152 290.317 41.95 289.801 42.646C289.297 43.342 288.661 43.876 287.893 44.248C287.125 44.632 286.297 44.824 285.409 44.824C284.149 44.824 283.153 44.524 282.421 43.924C281.701 43.324 281.329 42.508 281.305 41.476H282.547C282.643 42.16 282.955 42.706 283.483 43.114C284.011 43.522 284.719 43.726 285.607 43.726C286.579 43.726 287.431 43.414 288.163 42.79C288.895 42.178 289.357 41.332 289.549 40.252L289.963 37.822C289.555 38.494 288.967 39.052 288.199 39.496C287.443 39.928 286.603 40.144 285.679 40.144C284.491 40.144 283.537 39.79 282.817 39.082C282.109 38.362 281.755 37.396 281.755 36.184C281.755 35.836 281.791 35.464 281.863 35.068C282.043 34.06 282.403 33.178 282.943 32.422C283.483 31.654 284.143 31.066 284.923 30.658C285.715 30.238 286.561 30.028 287.461 30.028ZM290.449 35.086C290.509 34.75 290.539 34.45 290.539 34.186C290.539 33.25 290.257 32.506 289.693 31.954C289.129 31.402 288.397 31.126 287.497 31.126C286.801 31.126 286.147 31.282 285.535 31.594C284.935 31.906 284.425 32.362 284.005 32.962C283.585 33.55 283.303 34.252 283.159 35.068C283.099 35.428 283.069 35.734 283.069 35.986C283.069 36.934 283.345 37.684 283.897 38.236C284.461 38.776 285.193 39.046 286.093 39.046C286.765 39.046 287.407 38.884 288.019 38.56C288.643 38.236 289.165 37.774 289.585 37.174C290.017 36.574 290.305 35.878 290.449 35.086ZM294.01 35.068C294.19 34.06 294.55 33.178 295.09 32.422C295.63 31.654 296.29 31.066 297.07 30.658C297.862 30.238 298.708 30.028 299.608 30.028C300.544 30.028 301.312 30.244 301.912 30.676C302.512 31.108 302.902 31.66 303.082 32.332L303.46 30.172H304.72L302.992 40H301.732L302.11 37.822C301.702 38.494 301.114 39.052 300.346 39.496C299.59 39.928 298.744 40.144 297.808 40.144C297.028 40.144 296.344 39.982 295.756 39.658C295.168 39.334 294.712 38.878 294.388 38.29C294.064 37.69 293.902 36.988 293.902 36.184C293.902 35.836 293.938 35.464 294.01 35.068ZM302.596 35.086C302.656 34.75 302.686 34.45 302.686 34.186C302.686 33.25 302.404 32.506 301.84 31.954C301.276 31.402 300.544 31.126 299.644 31.126C298.948 31.126 298.294 31.282 297.682 31.594C297.082 31.906 296.572 32.362 296.152 32.962C295.732 33.55 295.45 34.252 295.306 35.068C295.246 35.428 295.216 35.734 295.216 35.986C295.216 36.934 295.492 37.684 296.044 38.236C296.608 38.776 297.34 39.046 298.24 39.046C298.912 39.046 299.554 38.884 300.166 38.56C300.79 38.236 301.312 37.774 301.732 37.174C302.164 36.574 302.452 35.878 302.596 35.086ZM308.514 32.134C308.91 31.45 309.426 30.922 310.062 30.55C310.698 30.178 311.436 29.992 312.276 29.992L312.042 31.306H311.682C310.818 31.306 310.074 31.528 309.45 31.972C308.826 32.416 308.394 33.148 308.154 34.168L307.128 40H305.868L307.596 30.172H308.856L308.514 32.134Z" fill="#263238"/>
<defs>
<clipPath id="clip0_527_12455">
<rect width="71" height="52" fill="white"/>
</clipPath>
</defs>
</svg>
